<svg width="24" height="24" viewBox="0 0 24 24" fill="none" xmlns="http://www.w3.org/2000/svg">
<g clip-path="url(#clip0_90_154)">
<path d="M9.17655 22.0148C9.00223 21.5686 9.08121 21.2143 9.44812 20.86C9.94366 20.4269 11.1346 20.3095 12.8144 18.565C15.517 15.7582 15.5311 11.9794 12.5882 9.1456L12.5475 9.10642L10.8176 10.903C9.81949 11.9395 8.74674 11.3617 8.49734 9.98469L7.29121 3.79267C7.08161 2.756 7.57418 2.24446 8.63042 2.40188L14.876 3.3604C16.2888 3.55706 16.8922 4.59434 15.8694 5.65659L14.0128 7.58467L14.0669 7.63673C17.9778 11.4026 18.142 16.4403 14.5296 20.1918C13.178 21.5955 11.7673 22.4612 10.6754 22.7493C10.0775 22.9071 9.40947 22.6176 9.17655 22.0148Z" fill="white"/>
</g>
<defs>
<clipPath id="clip0_90_154">
<rect width="24" height="24" fill="white" transform="matrix(-1 0 0 1 24 0)"/>
</clipPath>
</defs>
</svg>
