<svg width="24" height="24" viewBox="0 0 24 24" fill="none" xmlns="http://www.w3.org/2000/svg">
<g clip-path="url(#clip0_90_197)">
<path d="M14.8235 22.0148C14.9978 21.5686 14.9188 21.2143 14.5519 20.86C14.0563 20.4269 12.8654 20.3095 11.1856 18.565C8.48297 15.7582 8.46889 11.9794 11.4118 9.1456L11.4525 9.10642L13.1824 10.903C14.1805 11.9395 15.2533 11.3617 15.5027 9.98469L16.7088 3.79267C16.9184 2.756 16.4258 2.24446 15.3696 2.40188L9.12403 3.3604C7.71116 3.55706 7.10776 4.59434 8.13062 5.65659L9.98719 7.58467L9.93313 7.63673C6.0222 11.4026 5.85802 16.4403 9.47039 20.1918C10.822 21.5955 12.2327 22.4612 13.3246 22.7493C13.9225 22.9071 14.5905 22.6176 14.8235 22.0148Z" fill="white"/>
</g>
<defs>
<clipPath id="clip0_90_197">
<rect width="24" height="24" fill="white"/>
</clipPath>
</defs>
</svg>
