<svg width="32" height="32" viewBox="0 0 32 32" fill="none" xmlns="http://www.w3.org/2000/svg">
<path d="M19.4998 14C19.4998 14.3978 19.3418 14.7794 19.0605 15.0607C18.7792 15.342 18.3977 15.5 17.9998 15.5H15.4998V18C15.4998 18.3978 15.3418 18.7794 15.0605 19.0607C14.7792 19.342 14.3977 19.5 13.9998 19.5C13.602 19.5 13.2205 19.342 12.9392 19.0607C12.6579 18.7794 12.4998 18.3978 12.4998 18V15.5H9.99983C9.602 15.5 9.22047 15.342 8.93917 15.0607C8.65786 14.7794 8.49983 14.3978 8.49983 14C8.49983 13.6022 8.65786 13.2207 8.93917 12.9394C9.22047 12.658 9.602 12.5 9.99983 12.5H12.4998V10C12.4998 9.60219 12.6579 9.22066 12.9392 8.93935C13.2205 8.65805 13.602 8.50001 13.9998 8.50001C14.3977 8.50001 14.7792 8.65805 15.0605 8.93935C15.3418 9.22066 15.4998 9.60219 15.4998 10V12.5H17.9998C18.3977 12.5 18.7792 12.658 19.0605 12.9394C19.3418 13.2207 19.4998 13.6022 19.4998 14ZM29.0611 29.0613C28.9217 29.2011 28.7561 29.3121 28.5738 29.3878C28.3915 29.4635 28.196 29.5024 27.9986 29.5024C27.8012 29.5024 27.6057 29.4635 27.4234 29.3878C27.241 29.3121 27.0754 29.2011 26.9361 29.0613L20.9998 23.125C18.6804 24.9049 15.7708 25.7359 12.8613 25.4494C9.95169 25.1629 7.26004 23.7804 5.33231 21.5823C3.40459 19.3842 2.38514 16.5352 2.48078 13.6131C2.57641 10.6911 3.77996 7.91478 5.84728 5.84746C7.9146 3.78014 10.6909 2.57659 13.613 2.48096C16.535 2.38533 19.3841 3.40477 21.5821 5.3325C23.7802 7.26022 25.1627 9.95187 25.4492 12.8614C25.7357 15.771 24.9047 18.6806 23.1248 21L29.0673 26.9413C29.3474 27.2233 29.5041 27.6051 29.5029 28.0026C29.5017 28.4001 29.3428 28.7808 29.0611 29.0613ZM13.9998 22.5C15.681 22.5 17.3244 22.0015 18.7222 21.0675C20.12 20.1335 21.2095 18.806 21.8528 17.2528C22.4961 15.6996 22.6645 13.9906 22.3365 12.3417C22.0085 10.6929 21.199 9.17835 20.0102 7.9896C18.8215 6.80086 17.3069 5.99131 15.6581 5.66334C14.0093 5.33536 12.3002 5.50369 10.747 6.14704C9.19385 6.79038 7.86633 7.87985 6.93234 9.27766C5.99835 10.6755 5.49983 12.3189 5.49983 14C5.50248 16.2535 6.39886 18.414 7.99234 20.0075C9.58583 21.601 11.7463 22.4974 13.9998 22.5Z" fill="white"/>
</svg>
